<?xml version="1.0" encoding="UTF-8" ?>
<!DOCTYPE svg PUBLIC "-//W3C//DTD SVG 1.1//EN" "http://www.w3.org/Graphics/SVG/1.1/DTD/svg11.dtd">
<svg width="1400pt" height="600pt" viewBox="0 0 1400 600" version="1.1" xmlns="http://www.w3.org/2000/svg">
<path fill="#ffffff" d=" M 0.00 0.00 L 1400.00 0.00 L 1400.00 600.00 L 0.00 600.00 L 0.00 0.00 Z" />
<path fill="#010101" d=" M 1075.02 179.98 C 1078.61 175.52 1083.64 172.42 1089.16 170.96 C 1099.42 169.36 1110.35 171.14 1119.16 176.82 C 1127.79 183.45 1131.40 194.69 1130.78 205.29 C 1132.52 206.94 1134.68 207.97 1137.15 207.79 C 1140.32 203.17 1143.18 198.20 1147.52 194.53 C 1152.00 190.71 1157.55 188.41 1163.15 186.78 C 1168.41 186.10 1173.76 186.24 1179.05 186.57 C 1186.86 188.12 1194.43 192.50 1198.59 199.47 C 1200.67 203.07 1202.33 206.94 1203.37 210.97 C 1203.94 216.65 1203.89 222.39 1203.43 228.07 C 1201.45 237.78 1195.60 246.73 1187.18 252.05 C 1180.59 256.05 1172.49 257.74 1164.93 256.00 C 1156.22 254.24 1148.47 248.96 1143.00 242.04 C 1142.10 240.43 1140.23 240.23 1138.62 240.00 C 1135.87 248.50 1138.41 257.39 1140.19 265.81 C 1142.33 273.23 1141.79 281.20 1140.25 288.68 C 1139.28 292.85 1139.77 297.21 1138.43 301.31 C 1136.93 309.43 1134.30 318.21 1138.22 326.09 C 1139.26 329.70 1142.88 331.24 1145.44 333.59 C 1152.61 341.01 1152.77 352.14 1158.67 360.31 C 1163.60 367.44 1166.08 375.92 1170.84 383.14 C 1176.49 385.98 1183.42 385.37 1189.31 387.76 C 1192.55 390.06 1194.96 393.43 1198.55 395.27 C 1203.63 397.92 1208.74 400.52 1213.95 402.93 C 1217.64 404.71 1222.28 404.66 1225.31 407.69 C 1227.72 410.51 1229.87 413.61 1231.39 417.02 C 1232.07 419.10 1230.03 420.52 1228.77 421.81 C 1224.19 425.61 1219.43 429.24 1214.33 432.28 C 1211.07 434.43 1206.98 433.21 1203.57 432.15 C 1202.04 431.20 1202.45 429.35 1202.22 427.87 C 1204.56 425.32 1207.16 423.03 1209.41 420.40 C 1210.44 417.67 1208.96 414.61 1207.50 412.34 C 1202.97 409.87 1197.83 408.97 1192.96 407.44 C 1184.32 404.79 1175.41 402.86 1167.14 399.14 C 1161.42 396.64 1155.46 394.43 1150.57 390.43 C 1146.38 386.98 1141.43 384.23 1138.41 379.58 C 1135.10 375.21 1132.23 370.52 1128.61 366.40 C 1127.69 365.39 1126.77 363.86 1125.17 364.47 C 1116.68 366.15 1108.70 369.97 1100.02 370.69 C 1095.52 371.57 1090.94 371.60 1086.38 371.71 C 1085.70 376.25 1088.27 380.46 1087.86 385.02 C 1088.34 389.90 1084.98 394.10 1085.43 398.97 C 1085.19 403.12 1086.71 407.04 1087.40 411.07 C 1088.09 418.42 1093.07 424.97 1091.67 432.56 C 1086.56 434.00 1081.22 433.27 1076.00 433.46 C 1070.07 433.31 1063.99 434.15 1058.25 432.26 C 1058.30 431.03 1058.24 429.79 1058.46 428.58 C 1063.16 424.70 1069.29 423.28 1074.37 420.00 C 1074.63 413.33 1074.59 406.65 1074.49 399.98 C 1074.46 396.24 1072.91 392.74 1072.54 389.05 C 1071.90 382.29 1068.55 375.92 1069.34 369.03 C 1069.67 365.23 1069.51 360.45 1073.04 358.06 C 1081.54 351.41 1090.90 345.83 1100.92 341.80 C 1104.07 340.47 1108.08 339.59 1109.47 336.04 C 1110.79 330.23 1107.07 325.13 1105.33 319.86 C 1103.25 313.39 1100.18 306.95 1100.51 300.01 C 1100.51 294.16 1099.66 287.59 1103.79 282.80 C 1106.43 278.43 1111.64 277.24 1115.49 274.38 C 1117.24 273.49 1116.83 270.93 1115.06 270.35 C 1111.85 268.49 1108.43 266.25 1107.52 262.39 C 1106.41 257.35 1108.31 252.29 1109.43 247.42 C 1110.91 241.44 1116.75 237.33 1122.82 237.33 C 1123.43 238.73 1124.01 240.15 1124.66 241.54 C 1119.42 250.89 1121.34 261.98 1121.44 272.19 C 1122.80 272.23 1124.14 271.79 1125.52 271.84 C 1127.34 270.10 1126.77 267.32 1126.93 265.06 C 1126.65 256.18 1126.66 246.14 1132.80 239.01 C 1134.34 240.68 1135.83 242.38 1137.41 244.02 C 1137.75 242.54 1138.09 241.06 1138.45 239.59 C 1139.42 239.12 1140.39 238.64 1141.39 238.17 C 1140.32 236.82 1139.23 235.48 1138.21 234.11 C 1134.12 227.19 1135.68 219.00 1135.86 211.42 C 1134.04 211.31 1132.24 211.22 1130.44 211.16 C 1128.32 216.13 1126.08 221.10 1122.74 225.39 L 1122.22 224.35 C 1122.10 220.93 1122.08 217.52 1122.19 214.11 C 1123.01 212.55 1123.91 211.03 1124.70 209.45 C 1122.95 209.81 1121.21 210.17 1119.51 210.66 C 1114.29 216.11 1117.31 224.60 1114.93 231.15 C 1113.98 233.23 1111.34 232.37 1109.56 232.74 C 1109.53 227.06 1109.65 221.37 1109.80 215.69 C 1110.24 213.17 1110.61 210.64 1110.80 208.09 C 1110.08 208.18 1108.66 208.35 1107.95 208.44 L 1107.36 208.55 C 1106.64 214.91 1106.24 221.33 1104.89 227.60 C 1104.18 230.15 1103.42 232.70 1103.31 235.36 L 1103.24 236.32 C 1092.80 240.11 1080.43 235.84 1074.14 226.80 C 1070.60 221.65 1066.74 216.38 1065.72 210.06 C 1063.91 199.23 1068.38 188.36 1075.02 179.98 Z" />
<path fill="#ffffff" d=" M 1111.02 203.53 C 1112.21 199.73 1115.83 196.03 1120.07 196.52 C 1123.67 197.37 1125.44 200.79 1126.45 204.03 C 1126.21 205.43 1125.42 206.00 1124.09 205.73 C 1121.88 204.13 1119.99 201.66 1117.11 201.37 C 1115.24 202.64 1113.42 204.18 1111.02 203.53 Z" />
<path fill="#888888" d=" M 1107.36 208.55 L 1107.95 208.44 C 1108.37 210.90 1109.08 213.30 1109.80 215.69 C 1109.65 221.37 1109.53 227.06 1109.56 232.74 C 1111.34 232.37 1113.98 233.23 1114.93 231.15 C 1117.31 224.60 1114.29 216.11 1119.51 210.66 C 1119.07 211.91 1118.71 213.18 1118.39 214.47 C 1119.11 214.81 1120.54 215.49 1121.26 215.83 C 1120.80 217.73 1120.64 219.68 1120.80 221.62 C 1119.58 221.51 1118.37 221.40 1117.18 221.30 C 1116.91 225.97 1116.65 230.65 1116.64 235.33 C 1117.67 235.56 1118.72 235.79 1119.78 236.02 C 1121.29 236.31 1122.81 236.62 1124.36 236.86 C 1124.78 238.40 1125.23 239.94 1125.72 241.46 L 1124.66 241.54 C 1124.01 240.15 1123.43 238.73 1122.82 237.33 C 1116.75 237.33 1110.91 241.44 1109.43 247.42 C 1108.31 252.29 1106.41 257.35 1107.52 262.39 C 1108.43 266.25 1111.85 268.49 1115.06 270.35 C 1111.26 270.83 1108.47 268.06 1107.21 264.76 C 1105.02 261.10 1106.05 256.77 1106.97 252.89 C 1107.73 249.95 1107.90 246.84 1109.10 244.02 C 1110.16 242.11 1111.45 240.34 1112.71 238.55 C 1110.97 238.18 1109.24 237.80 1107.53 237.43 C 1106.75 234.13 1105.83 230.86 1104.89 227.60 C 1106.24 221.33 1106.64 214.91 1107.36 208.55 Z" />
<path fill="#dadada" d=" M 1107.95 208.44 C 1108.66 208.35 1110.08 208.18 1110.80 208.09 C 1110.61 210.64 1110.24 213.17 1109.80 215.69 C 1109.08 213.30 1108.37 210.90 1107.95 208.44 Z" />
<path fill="#b6b6b6" d=" M 1119.51 210.66 C 1121.21 210.17 1122.95 209.81 1124.70 209.45 C 1123.91 211.03 1123.01 212.55 1122.19 214.11 C 1121.96 214.54 1121.49 215.40 1121.26 215.83 C 1120.54 215.49 1119.11 214.81 1118.39 214.47 C 1118.71 213.18 1119.07 211.91 1119.51 210.66 Z" />
<path fill="#b6b6b6" d=" M 1130.44 211.16 C 1132.24 211.22 1134.04 211.31 1135.86 211.42 C 1135.68 219.00 1134.12 227.19 1138.21 234.11 C 1135.25 235.24 1132.11 236.37 1129.93 238.77 C 1128.44 240.91 1128.08 243.58 1127.27 246.00 C 1126.72 244.49 1126.20 242.98 1125.72 241.46 C 1125.23 239.94 1124.78 238.40 1124.36 236.86 C 1128.48 236.77 1131.85 234.27 1134.92 231.78 C 1133.92 225.46 1133.85 219.00 1135.01 212.70 C 1133.81 212.37 1132.60 212.11 1131.42 211.84 C 1129.22 216.96 1126.84 222.03 1123.69 226.65 C 1121.59 225.24 1119.60 223.70 1117.58 222.21 C 1117.89 226.87 1118.41 231.53 1119.78 236.02 C 1118.72 235.79 1117.67 235.56 1116.64 235.33 C 1116.65 230.65 1116.91 225.97 1117.18 221.30 C 1118.37 221.40 1119.58 221.51 1120.80 221.62 C 1121.16 222.30 1121.87 223.66 1122.22 224.35 L 1122.74 225.39 C 1126.08 221.10 1128.32 216.13 1130.44 211.16 Z" />
<path fill="#ffffff" d=" M 1131.42 211.84 C 1132.60 212.11 1133.81 212.37 1135.01 212.70 C 1133.85 219.00 1133.92 225.46 1134.92 231.78 C 1131.85 234.27 1128.48 236.77 1124.36 236.86 C 1122.81 236.62 1121.29 236.31 1119.78 236.02 C 1118.41 231.53 1117.89 226.87 1117.58 222.21 C 1119.60 223.70 1121.59 225.24 1123.69 226.65 C 1126.84 222.03 1129.22 216.96 1131.42 211.84 Z" />
<path fill="#272627" d=" M 1121.26 215.83 C 1121.49 215.40 1121.96 214.54 1122.19 214.11 C 1122.08 217.52 1122.10 220.93 1122.22 224.35 C 1121.87 223.66 1121.16 222.30 1120.80 221.62 C 1120.64 219.68 1120.80 217.73 1121.26 215.83 Z" />
<path fill="#dadada" d=" M 1103.31 235.36 C 1103.42 232.70 1104.18 230.15 1104.89 227.60 C 1105.83 230.86 1106.75 234.13 1107.53 237.43 C 1109.24 237.80 1110.97 238.18 1112.71 238.55 C 1111.45 240.34 1110.16 242.11 1109.10 244.02 C 1109.28 242.60 1109.51 241.18 1109.74 239.77 C 1108.65 239.75 1107.56 239.72 1106.50 239.66 C 1106.11 238.44 1105.74 237.22 1105.39 236.00 C 1104.87 235.84 1103.83 235.52 1103.31 235.36 Z" />
<path fill="#888888" d=" M 532.86 240.87 C 538.25 234.57 547.10 232.74 555.05 233.10 C 560.85 233.22 566.57 234.43 572.10 236.17 C 571.42 240.68 570.72 245.20 569.67 249.64 C 569.26 251.12 568.85 253.08 566.95 253.17 C 562.74 253.17 558.40 251.70 554.27 253.09 C 551.47 255.57 552.48 259.80 552.17 263.11 C 556.04 263.31 559.93 263.10 563.81 263.36 C 565.32 263.25 566.84 264.56 566.89 266.09 C 567.15 270.69 567.15 275.32 566.90 279.92 C 566.90 281.47 565.49 282.92 563.93 282.89 C 560.04 283.17 556.14 282.95 552.25 283.07 C 552.27 301.06 552.25 319.05 552.28 337.05 C 552.25 338.81 552.21 341.72 549.86 341.86 C 543.60 342.15 537.32 342.10 531.07 341.90 C 528.93 341.99 528.07 339.76 528.27 337.98 C 528.18 319.67 528.38 301.37 528.19 283.06 C 524.76 282.51 520.15 284.36 517.65 281.31 C 516.86 276.08 517.12 270.68 517.46 265.42 C 519.60 261.72 524.68 263.77 528.14 263.15 C 528.51 255.64 527.72 247.05 532.86 240.87 Z" />
<path fill="#272627" d=" M 1138.21 234.11 C 1139.23 235.48 1140.32 236.82 1141.39 238.17 C 1140.39 238.64 1139.42 239.12 1138.45 239.59 C 1138.09 241.06 1137.75 242.54 1137.41 244.02 C 1135.83 242.38 1134.34 240.68 1132.80 239.01 C 1126.66 246.14 1126.65 256.18 1126.93 265.06 C 1126.77 267.32 1127.34 270.10 1125.52 271.84 C 1124.14 271.79 1122.80 272.23 1121.44 272.19 C 1121.34 261.98 1119.42 250.89 1124.66 241.54 C 1122.83 251.11 1120.69 260.98 1122.36 270.73 C 1123.38 270.68 1124.41 270.64 1125.46 270.59 C 1125.71 266.05 1126.39 261.53 1126.32 256.98 C 1126.37 253.31 1126.06 249.54 1127.27 246.00 C 1128.08 243.58 1128.44 240.91 1129.93 238.77 C 1132.11 236.37 1135.25 235.24 1138.21 234.11 Z" />
<path fill="#888888" d=" M 438.75 235.70 C 440.92 234.39 443.57 234.80 445.99 234.69 C 450.59 234.84 455.22 234.41 459.80 234.97 C 462.23 235.32 461.98 238.11 462.03 239.95 C 461.95 268.30 462.01 296.65 461.99 325.00 C 461.96 330.52 462.28 336.06 461.55 341.55 C 454.76 342.29 447.89 342.09 441.07 341.90 C 438.92 342.00 438.07 339.76 438.27 337.98 C 438.22 306.99 438.31 275.99 438.23 245.00 C 438.29 241.91 437.92 238.73 438.75 235.70 Z" />
<path fill="#888888" d=" M 483.48 235.33 C 487.15 234.13 491.18 234.94 494.99 234.70 C 498.38 234.94 502.11 234.03 505.23 235.71 C 506.86 241.57 505.75 247.92 505.94 253.97 C 506.34 257.30 502.38 257.39 500.05 257.30 C 494.52 257.05 488.87 257.84 483.41 256.80 C 480.68 254.11 482.50 249.49 481.96 246.00 C 482.47 242.56 480.72 237.94 483.48 235.33 Z" />
<path fill="#888888" d=" M 631.29 235.09 C 637.76 234.40 644.36 234.63 650.86 234.94 C 653.37 235.12 653.52 238.04 653.50 239.98 C 653.40 245.25 653.87 250.57 653.14 255.80 C 651.74 257.80 649.09 257.10 647.03 257.30 C 641.78 257.12 636.49 257.68 631.29 256.91 C 629.24 255.68 629.93 253.02 629.70 251.03 C 629.83 246.12 629.34 241.16 630.09 236.29 C 630.39 235.99 630.99 235.39 631.29 235.09 Z" />
<path fill="#272627" d=" M 1034.49 235.33 C 1035.70 234.31 1037.47 234.91 1038.94 234.72 C 1043.95 234.81 1048.96 234.63 1053.97 234.79 C 1056.04 234.82 1057.34 237.01 1057.01 238.95 C 1056.97 272.29 1057.04 305.64 1056.97 338.98 C 1057.13 340.68 1055.67 342.14 1053.98 341.97 C 1048.62 342.08 1043.26 341.95 1037.92 342.03 C 1036.50 341.95 1034.93 342.19 1033.77 341.22 C 1032.79 340.06 1033.03 338.47 1032.97 337.08 C 1033.03 304.37 1033.00 271.66 1032.99 238.95 C 1032.93 237.57 1033.08 236.01 1034.49 235.33 Z" />
<path fill="#888888" d=" M 578.86 249.19 C 585.90 245.09 592.87 240.88 600.02 236.99 C 600.83 238.06 602.65 238.61 602.68 240.11 C 602.95 247.80 602.53 255.50 602.83 263.18 C 606.68 263.33 610.58 262.95 614.41 263.57 C 615.57 264.32 616.30 265.57 616.20 266.98 C 616.37 271.29 616.43 275.63 616.15 279.94 C 616.18 281.33 615.27 282.84 613.81 283.03 C 610.19 283.52 606.52 283.21 602.89 283.26 C 602.54 292.83 602.85 302.42 602.71 311.99 C 602.76 315.20 602.45 318.48 603.24 321.63 C 606.43 325.56 611.76 320.07 615.47 322.53 C 617.36 328.11 616.99 334.19 617.98 339.97 C 610.99 343.30 603.04 344.45 595.39 343.42 C 590.12 342.54 584.47 340.24 581.74 335.35 C 579.17 330.68 578.93 325.19 578.75 319.98 C 578.69 307.78 578.79 295.58 578.73 283.38 C 575.90 282.91 572.12 284.21 570.09 281.71 C 569.43 275.72 569.36 269.55 570.43 263.60 C 573.19 263.35 575.97 263.18 578.74 262.99 C 578.72 258.38 578.70 253.78 578.86 249.19 Z" />
<path fill="#ffffff" d=" M 1124.66 241.54 L 1125.72 241.46 C 1126.20 242.98 1126.72 244.49 1127.27 246.00 C 1126.06 249.54 1126.37 253.31 1126.32 256.98 C 1126.39 261.53 1125.71 266.05 1125.46 270.59 C 1124.41 270.64 1123.38 270.68 1122.36 270.73 C 1120.69 260.98 1122.83 251.11 1124.66 241.54 Z" />
<path fill="#b6b6b6" d=" M 243.49 269.64 C 251.84 262.22 264.08 259.37 274.67 263.27 C 279.17 264.78 282.56 268.22 285.76 271.56 C 290.35 267.63 295.28 263.66 301.34 262.36 C 308.78 260.76 317.00 261.43 323.62 265.40 C 328.96 268.55 332.63 274.17 333.83 280.21 C 334.97 285.73 334.71 291.40 334.72 297.00 C 334.64 310.98 334.80 324.98 334.69 338.96 C 335.10 341.59 331.98 342.02 330.07 341.99 C 324.16 341.97 318.20 342.36 312.32 341.71 C 310.29 340.59 310.95 337.94 310.69 336.04 C 310.75 323.36 310.69 310.68 310.76 298.00 C 310.70 293.55 311.02 288.88 309.33 284.66 C 306.49 279.01 298.06 280.24 294.31 284.30 C 290.61 288.18 290.34 293.91 289.92 298.96 C 289.38 312.28 289.93 325.63 289.68 338.96 C 290.08 341.11 287.77 341.98 286.02 341.92 C 279.50 342.16 272.95 342.22 266.45 341.55 C 265.24 324.46 266.72 307.29 265.66 290.19 C 265.36 286.97 264.84 282.88 261.44 281.47 C 256.40 279.66 250.13 281.73 247.41 286.42 C 244.83 290.81 244.91 296.09 244.71 301.02 C 244.68 313.04 244.70 325.06 244.77 337.08 C 244.70 338.80 245.03 341.37 242.71 341.68 C 236.23 342.34 229.65 342.09 223.15 341.85 C 220.67 341.76 220.82 338.82 220.73 337.04 C 220.68 315.02 220.81 293.00 220.67 270.98 C 220.67 268.48 221.02 266.00 221.43 263.54 C 227.81 263.24 234.24 262.93 240.62 263.50 C 243.47 263.91 242.86 267.57 243.49 269.64 Z" />
<path fill="#888888" d=" M 696.26 270.10 C 701.84 265.43 708.59 261.91 716.00 261.63 C 724.58 261.07 734.04 263.44 739.81 270.20 C 744.45 275.64 745.43 283.11 745.49 290.02 C 745.47 305.69 745.47 321.37 745.50 337.04 C 745.50 338.92 745.45 341.88 742.90 341.90 C 736.66 342.10 730.39 342.15 724.15 341.86 C 721.78 341.73 721.73 338.82 721.72 337.05 C 721.72 325.03 721.76 313.01 721.74 300.99 C 721.60 296.45 721.72 291.83 720.64 287.38 C 719.71 283.53 715.91 280.79 711.99 280.85 C 705.95 280.38 699.92 284.63 698.50 290.54 C 697.39 294.93 697.39 299.49 697.27 303.98 C 697.22 315.00 697.29 326.02 697.28 337.05 C 697.25 338.82 697.21 341.73 694.85 341.86 C 688.61 342.15 682.34 342.10 676.10 341.90 C 673.53 341.88 673.48 338.92 673.50 337.03 C 673.53 314.01 673.53 290.98 673.50 267.96 C 673.35 266.11 673.85 263.36 676.20 263.34 C 681.99 263.20 687.81 263.01 693.59 263.46 C 696.52 264.12 695.79 267.87 696.26 270.10 Z" />
<path fill="#888888" d=" M 784.84 262.90 C 791.04 261.14 797.80 260.97 803.96 263.03 C 807.89 264.33 811.28 266.77 814.67 269.09 C 815.40 267.08 815.37 263.55 818.19 263.35 C 823.72 263.14 829.27 263.13 834.80 263.35 C 836.72 263.24 838.20 265.14 837.97 266.99 C 838.05 284.99 837.96 302.99 837.99 321.00 C 837.92 330.25 838.39 339.61 836.69 348.75 C 835.32 356.01 831.52 363.18 824.95 366.96 C 815.70 372.60 804.46 372.57 794.00 372.17 C 785.81 371.65 777.00 370.01 770.81 364.21 C 765.74 359.71 763.00 352.79 763.53 346.05 C 763.49 344.21 765.19 342.55 767.05 343.09 C 774.42 343.87 781.82 344.61 789.12 345.82 C 790.82 348.11 791.14 352.01 794.51 352.52 C 799.81 353.40 805.91 353.65 810.64 350.69 C 815.41 346.59 813.67 339.50 814.00 333.96 C 810.33 336.84 806.48 339.69 801.92 340.95 C 792.17 343.64 780.94 341.50 773.42 334.56 C 765.93 327.81 762.03 317.84 761.20 307.94 C 760.60 299.57 761.05 290.93 763.96 282.98 C 767.41 273.62 775.19 265.75 784.84 262.90 Z" />
<path fill="#272627" d=" M 879.32 270.08 C 885.83 263.85 895.02 260.54 904.01 261.74 C 914.63 262.68 923.97 269.93 928.78 279.25 C 932.75 286.81 933.79 295.54 933.67 303.97 C 933.45 313.80 931.19 324.05 924.82 331.80 C 918.53 339.86 908.25 344.67 898.00 343.72 C 891.42 343.46 885.53 340.13 880.54 336.08 C 880.44 346.35 880.57 356.63 880.49 366.90 C 880.60 368.27 879.75 369.37 879.14 370.50 C 872.76 370.46 866.39 370.59 860.03 370.48 C 858.00 370.80 856.46 368.88 856.76 366.97 C 856.70 333.96 856.78 300.94 856.72 267.92 C 856.51 266.21 857.24 264.66 858.12 263.25 C 864.70 263.22 871.29 263.22 877.88 263.25 C 879.39 265.22 879.32 267.71 879.32 270.08 Z" />
<path fill="#272627" d=" M 961.75 264.60 C 971.21 260.85 981.72 261.11 991.68 262.27 C 999.76 263.25 1008.36 267.41 1011.72 275.25 C 1014.50 283.19 1013.62 291.75 1013.77 300.00 C 1014.09 313.32 1011.83 327.41 1018.02 339.82 C 1017.01 340.52 1016.38 342.11 1014.98 341.98 C 1008.32 342.07 1001.65 341.96 994.99 342.00 C 994.16 339.97 993.52 337.88 992.79 335.83 C 987.81 339.63 982.05 342.64 975.77 343.43 C 967.17 344.60 957.55 343.11 951.05 336.95 C 942.62 329.25 941.52 315.24 947.94 305.97 C 950.87 301.72 955.43 298.91 960.26 297.28 C 970.07 293.87 980.58 293.19 990.41 289.83 C 990.08 287.06 990.02 283.35 987.00 282.09 C 982.80 280.58 978.03 280.29 973.74 281.61 C 969.89 282.88 968.64 287.13 967.15 290.46 C 960.56 289.22 953.94 288.19 947.40 286.82 C 947.02 286.26 946.26 285.15 945.88 284.59 C 947.97 276.09 953.41 267.96 961.75 264.60 Z" />
<path fill="#b6b6b6" d=" M 346.28 263.41 C 354.01 263.20 361.74 263.13 369.47 263.46 C 374.97 279.27 380.14 295.19 385.55 311.04 C 388.66 304.23 390.50 296.95 392.91 289.89 C 395.87 281.11 398.69 272.29 401.62 263.50 C 408.07 263.13 414.55 263.25 421.01 263.25 C 422.31 263.37 424.01 263.12 424.76 264.51 C 425.90 265.97 424.81 267.85 424.46 269.40 C 415.99 292.31 407.63 315.25 399.20 338.17 C 396.13 346.23 393.86 354.77 388.98 361.99 C 385.16 367.73 378.49 370.89 371.82 371.83 C 365.09 372.69 358.15 372.55 351.58 370.73 C 351.00 364.92 349.61 359.12 350.07 353.27 C 350.37 352.99 350.99 352.44 351.29 352.16 C 356.76 351.55 363.32 354.08 367.88 349.91 C 370.89 346.56 374.12 341.70 371.94 337.10 C 363.32 314.66 354.92 292.13 346.26 269.71 C 345.34 267.69 345.11 265.38 346.28 263.41 Z" />
<path fill="#888888" d=" M 482.03 266.98 C 481.79 265.14 483.27 263.24 485.19 263.35 C 491.07 263.13 496.97 263.17 502.85 263.33 C 504.90 263.06 506.20 265.10 505.98 266.96 C 506.03 284.97 505.97 302.99 505.99 321.00 C 505.86 327.85 506.41 334.73 505.55 341.55 C 497.88 342.28 490.11 342.28 482.44 341.55 C 481.99 338.05 481.92 334.52 481.98 331.00 C 482.08 309.66 481.94 288.32 482.03 266.98 Z" />
<path fill="#888888" d=" M 631.45 263.55 C 637.86 262.91 644.37 263.27 650.81 263.33 C 653.12 263.38 653.64 266.11 653.50 267.95 C 653.47 290.98 653.47 314.01 653.50 337.04 C 653.50 338.92 653.46 341.89 650.90 341.90 C 644.65 342.10 638.38 342.15 632.15 341.86 C 629.77 341.73 629.74 338.82 629.72 337.05 C 629.76 314.01 629.73 290.97 629.73 267.94 C 629.94 266.51 629.64 263.89 631.45 263.55 Z" />
<path fill="#ffffff" d=" M 795.39 281.47 C 799.90 280.01 805.23 280.95 808.68 284.31 C 813.33 288.46 814.23 295.11 814.38 301.00 C 814.48 307.20 813.34 314.12 808.45 318.43 C 803.71 323.03 795.27 323.28 790.65 318.37 C 785.20 312.90 785.05 304.45 785.47 297.23 C 785.87 290.83 788.83 283.64 795.39 281.47 Z" />
<path fill="#ffffff" d=" M 892.44 281.60 C 898.56 280.10 904.88 284.11 907.21 289.74 C 909.59 295.49 909.68 301.92 909.10 308.04 C 908.56 312.62 907.35 317.57 903.69 320.70 C 899.69 324.69 892.87 324.95 888.31 321.78 C 884.29 319.13 881.96 314.56 881.13 309.92 C 880.02 303.67 879.83 297.03 881.98 290.98 C 883.57 286.36 887.54 282.47 892.44 281.60 Z" />
<path fill="#ffffff" d=" M 971.21 312.12 C 977.22 309.39 983.92 308.78 990.25 307.05 C 990.08 311.80 990.88 317.44 987.20 321.14 C 982.92 325.48 974.81 327.88 970.06 322.97 C 966.78 320.08 967.01 314.04 971.21 312.12 Z" />
</svg>
